<?xml version="1.0" standalone="no"?>
<!DOCTYPE svg PUBLIC "-//W3C//DTD SVG 20010904//EN"
 "http://www.w3.org/TR/2001/REC-SVG-20010904/DTD/svg10.dtd">
<svg version="1.0" xmlns="http://www.w3.org/2000/svg"
 width="1920.000000pt" height="1920.000000pt" viewBox="0 0 1920.000000 1920.000000"
 preserveAspectRatio="xMidYMid meet">

<g transform="translate(0.000000,1920.000000) scale(0.100000,-0.100000)"
fill="#000000" stroke="none">
<path d="M15093 14229 c-93 -46 -159 -190 -199 -436 -29 -183 -186 -426 -470
-730 -58 -62 -111 -128 -119 -147 -19 -44 -18 -109 0 -160 8 -22 12 -43 9 -47
-10 -17 -185 -161 -306 -252 -454 -341 -1292 -834 -1910 -1124 -144 -67 -179
-79 -303 -104 -288 -59 -544 -143 -705 -232 -41 -23 -172 -85 -290 -137 -947
-423 -1638 -800 -2098 -1149 -63 -47 -124 -91 -135 -98 -44 -23 -218 -45 -302
-38 -314 27 -628 208 -972 556 -213 216 -439 490 -427 518 13 31 34 127 34
157 l0 31 68 7 c140 13 977 62 1392 81 96 5 170 17 324 51 534 121 907 184
1089 184 68 0 93 -5 168 -36 161 -64 307 -80 439 -48 42 10 121 16 220 18 129
2 164 6 211 23 38 14 93 23 180 28 231 13 369 48 434 109 38 36 42 52 22 80
-13 17 -21 17 -189 1 -96 -9 -245 -17 -329 -18 -133 -2 -175 2 -304 26 -204
39 -585 138 -665 173 -59 26 -76 28 -185 29 -66 0 -176 -6 -245 -14 -90 -10
-199 -12 -385 -8 -268 6 -397 19 -584 59 -95 21 -133 23 -371 23 -283 0 -357
-9 -600 -70 -115 -29 -317 -41 -660 -39 -342 2 -464 15 -595 65 -241 90 -591
158 -818 159 -40 0 -80 6 -97 15 -34 17 -55 72 -47 121 5 32 5 34 -66 69 -66
32 -173 112 -164 121 2 3 38 -13 79 -34 78 -40 184 -76 253 -87 22 -4 83 -21
135 -38 75 -25 112 -32 177 -32 77 0 84 2 110 28 25 25 28 35 30 103 1 50 7
82 16 92 24 28 37 59 37 90 0 16 10 42 22 58 17 21 24 45 26 95 l4 67 59 21
c61 23 89 50 89 87 0 11 -18 49 -40 83 -93 143 -104 201 -75 365 31 171 7 365
-62 499 -18 36 -26 65 -24 95 2 50 -28 124 -67 165 -37 39 -219 152 -327 203
-236 112 -504 142 -735 83 -318 -81 -564 -345 -655 -703 l-24 -91 33 -30 c18
-16 41 -41 52 -55 15 -19 11 -18 -19 8 -63 54 -94 66 -138 53 -101 -30 -220
-143 -284 -271 -57 -113 -76 -185 -82 -306 -5 -96 -3 -122 16 -182 28 -93 72
-149 145 -187 50 -25 70 -30 135 -30 62 0 84 5 119 25 24 14 51 37 60 52 16
27 15 28 -13 59 -24 25 -26 31 -10 25 11 -4 47 -14 80 -23 70 -18 133 -8 202
32 l43 24 6 -26 c10 -39 -4 -285 -22 -393 -9 -52 -29 -134 -45 -182 -58 -180
-83 -349 -83 -573 0 -187 12 -282 55 -429 29 -98 91 -237 146 -325 199 -323
339 -509 522 -691 247 -246 411 -357 986 -660 325 -172 396 -212 545 -308 224
-145 403 -299 539 -463 118 -142 278 -263 476 -360 l120 -58 -275 -1 c-298 0
-1361 -16 -1740 -25 -129 -3 -408 -10 -620 -15 -900 -22 -1248 -32 -1290 -39
-26 -4 147 -12 400 -19 245 -7 513 -15 595 -17 1113 -36 2174 -50 3925 -50
1748 0 2832 14 3925 50 83 2 350 10 595 17 253 7 426 15 400 19 -42 7 -393 17
-1290 39 -212 5 -493 12 -625 15 -505 12 -1470 25 -1927 25 -263 0 -478 4
-478 8 0 4 20 17 43 29 118 57 231 186 395 450 177 286 245 362 517 578 477
378 599 486 840 741 454 482 510 522 809 584 849 177 1427 519 1858 1100 56
75 268 289 408 412 97 84 185 148 237 172 l41 18 68 -40 c124 -73 286 -112
465 -112 68 0 101 -5 153 -25 37 -14 84 -25 106 -25 32 0 43 6 68 36 43 52 61
119 77 293 33 351 71 1262 62 1476 -10 233 -76 455 -168 560 -65 74 -155 94
-236 54z"/>
<path d="M7615 7504 c-400 -8 -1020 -27 -1330 -39 -192 -8 -379 -15 -415 -16
-57 -1 -61 -2 -30 -9 32 -8 304 -19 1275 -52 482 -17 2794 -17 3275 0 956 32
1238 44 1270 52 27 6 13 8 -65 10 -55 1 -109 3 -120 5 -20 3 -80 5 -840 31
-401 14 -2598 27 -3020 18z"/>
<path d="M9132 6318 c-55 -106 -193 -377 -307 -603 -114 -225 -243 -478 -286
-561 -44 -84 -79 -155 -79 -158 0 -3 53 -6 118 -6 l117 0 95 188 95 187 350 0
350 0 95 -187 95 -188 118 0 c64 0 117 2 117 4 0 4 -770 1509 -775 1514 -2 2
-48 -84 -103 -190z m232 -524 c69 -135 126 -249 126 -255 0 -6 -96 -9 -255 -9
-153 1 -255 5 -255 11 0 20 245 499 255 499 2 0 60 -110 129 -246z"/>
<path d="M13316 6499 c-172 -19 -331 -120 -389 -248 -16 -34 -21 -67 -22 -126
0 -103 24 -155 115 -246 73 -74 136 -110 336 -189 152 -61 177 -74 228 -113
154 -122 146 -299 -18 -385 -46 -24 -62 -27 -156 -27 -93 0 -111 3 -162 27
-68 32 -135 92 -178 159 -18 27 -36 49 -41 49 -5 0 -56 -12 -114 -26 l-104
-26 12 -27 c28 -65 93 -154 153 -210 100 -94 212 -143 362 -160 249 -27 465
76 560 269 24 50 27 66 27 165 0 104 -2 114 -32 175 -59 121 -171 211 -358
290 -232 98 -262 112 -311 144 -126 84 -105 221 43 276 62 23 216 28 274 9 19
-7 65 -34 103 -62 79 -56 64 -58 181 26 36 26 65 53 63 60 -3 7 -35 36 -74 65
-130 98 -324 149 -498 131z"/>
<path d="M5260 5725 l0 -735 115 0 115 0 0 300 c0 165 4 300 9 300 66 0 277
25 334 39 167 43 292 132 349 249 30 60 33 75 33 157 0 77 -4 98 -27 148 -67
142 -236 239 -468 267 -46 5 -169 10 -272 10 l-188 0 0 -735z m515 530 c81
-21 136 -55 171 -106 26 -38 29 -50 29 -125 0 -77 -2 -85 -31 -121 -61 -76
-170 -115 -356 -129 l-98 -7 0 258 0 258 113 -6 c61 -4 139 -14 172 -22z"/>
<path d="M6690 5725 l0 -735 115 0 115 0 -2 733 -3 732 -112 3 -113 3 0 -736z"/>
<path d="M7470 5725 l0 -735 380 0 380 0 0 100 0 100 -265 0 -265 0 -2 633 -3
632 -112 3 -113 3 0 -736z"/>
<path d="M10147 6453 c-4 -3 -7 -48 -7 -99 l0 -94 198 -2 197 -3 3 -632 2
-633 110 0 110 0 2 633 3 632 198 3 198 2 -3 98 -3 97 -501 3 c-275 1 -504 -1
-507 -5z"/>
<path d="M11550 5725 l0 -735 455 0 455 0 0 100 0 100 -342 2 -343 3 -3 248
-2 247 345 0 345 0 0 105 0 105 -345 0 -345 0 2 178 3 177 343 3 342 2 0 100
0 100 -455 0 -455 0 0 -735z"/>
</g>
</svg>
